<?xml version="1.0" encoding="iso-8859-1"?>
<!-- Uploaded to: SVG Repo, www.svgrepo.com, Generator: SVG Repo Mixer Tools -->
<svg height="800px" width="800px" version="1.1" id="Layer_1" xmlns="http://www.w3.org/2000/svg" xmlns:xlink="http://www.w3.org/1999/xlink" 
	 viewBox="0 0 474.085 474.085" xml:space="preserve">
<circle style="fill:#ACDDDE;" cx="237.042" cy="236.966" r="236.966"/>
<path style="fill:#9ACA42;" d="M237.016,474.085c100.781,0,186.811-62.944,221.074-151.635c-61.87-37.302-142.322-55-230.283-55
	c-80.886,0-155.414,14.982-214.994,46.39C44.708,407.044,133.006,474.085,237.016,474.085z"/>
<path style="fill:#9F7235;" d="M237.914,179.047c-2.769,0-5.014,2.245-5.014,5.01v87.168c0,2.761,2.245,5.006,5.014,5.006
	c2.765,0,5.01-2.245,5.01-5.006v-87.168C242.924,181.292,240.679,179.047,237.914,179.047z"/>
<path style="fill:#B28D5D;" d="M237.914,179.047c-2.769,0-5.014,2.245-5.014,5.01v87.168c0,2.761,2.245,5.006,5.014,5.006V179.047z"
	/>
<path style="fill:#0E9554;" d="M286.913,232.562c-2.78-4.565-43.606-54.061-43.606-54.061c-3.113-5.867-8.172-5.867-11.293,0
	c0,0-40.718,48.849-43.599,54.061c-2.889,5.209-2.713,16.228,0,21.234c4.853,8.995,91.265,9.44,98.498,0
	C290.419,249.224,289.696,237.123,286.913,232.562z"/>
<path style="fill:#159F57;" d="M274.86,202.104l-32.935-47.973c-2.357-4.434-6.174-4.434-8.531,0l-32.931,47.973
	c-2.361,4.43-3.225,11.614-0.868,16.041h76.134C278.082,213.718,277.221,206.534,274.86,202.104z"/>
<path style="fill:#1AAA5B;" d="M211.235,184.787c-1.673-3.151-1.673-8.247,0-11.394l23.397-44.003c1.669-3.151,4.382-3.151,6.058,0
	l23.393,44.003c1.673,3.147,1.673,8.243,0,11.394H211.235z"/>
<path style="fill:#9F7235;" d="M326.504,206.463c-3.573,0-6.469,2.9-6.469,6.469V325.44c0,3.573,2.892,6.469,6.469,6.469
	s6.469-2.892,6.469-6.469V212.932C332.97,209.363,330.077,206.463,326.504,206.463z"/>
<path style="fill:#B28D5D;" d="M326.504,206.463c-3.573,0-6.469,2.9-6.469,6.469V325.44c0,3.573,2.892,6.469,6.469,6.469V206.463z"
	/>
<path style="fill:#15AA63;" d="M389.747,275.539c-3.592-5.89-56.284-69.78-56.284-69.78c-4.022-7.577-10.548-7.577-14.578,0
	c0,0-52.553,63.049-56.28,69.78c-3.727,6.716-3.499,20.946,0,27.405c6.267,11.614,117.794,12.191,127.141,0
	C394.275,297.04,393.343,281.422,389.747,275.539z"/>
<path style="fill:#1EAE64;" d="M374.197,236.229l-42.514-61.922c-3.042-5.721-7.974-5.721-11.012,0l-42.506,61.922
	c-3.042,5.71-4.161,14.989-1.119,20.699h98.266C378.346,251.218,377.235,241.938,374.197,236.229z"/>
<path style="fill:#28B467;" d="M292.072,213.872c-2.163-4.064-2.163-10.649,0-14.713l30.192-56.789c2.159-4.071,5.661-4.071,7.82,0
	l30.192,56.789c2.163,4.064,2.163,10.649,0,14.713L292.072,213.872L292.072,213.872z"/>
<path style="fill:#9F7235;" d="M164.8,237.1c-4.135,0-7.491,3.353-7.491,7.491v130.273c0,4.135,3.353,7.491,7.491,7.491
	s7.491-3.353,7.491-7.491V244.591C172.291,240.457,168.939,237.1,164.8,237.1z"/>
<path style="fill:#B28D5D;" d="M164.8,237.1c-4.135,0-7.491,3.353-7.491,7.491v130.273c0,4.135,3.353,7.491,7.491,7.491V237.1z"/>
<path style="fill:#15AA63;" d="M238.034,317.08c-4.157-6.817-65.174-80.796-65.174-80.796c-4.658-8.778-12.217-8.778-16.879,0
	c0,0-60.856,73.005-65.17,80.796c-4.314,7.783-4.049,24.254,0,31.738c7.255,13.44,136.406,14.118,147.223,0
	C243.272,341.986,242.195,323.898,238.034,317.08z"/>
<path style="fill:#1EAE64;" d="M220.025,271.558l-49.227-71.7c-3.521-6.627-9.231-6.627-12.752,0l-49.219,71.7
	c-3.521,6.623-4.819,17.358-1.298,23.977h113.787C224.837,288.913,223.546,278.177,220.025,271.558z"/>
<path style="fill:#28B467;" d="M124.932,245.68c-2.503-4.707-2.503-12.333,0-17.036l34.967-65.761c2.499-4.711,6.552-4.711,9.055,0
	l34.967,65.761c2.503,4.703,2.503,12.329,0,17.036H124.932z"/>
</svg>